<svg width="61" height="61" viewBox="0 0 61 61" fill="none" xmlns="http://www.w3.org/2000/svg">
<g clip-path="url(#clip0_30_895)">
<path d="M59.25 57.6698H50.5V13.9199C50.5 9.09485 46.575 5.16985 41.75 5.16985H39.6575C39.1125 4.01985 38.3125 2.98985 37.2975 2.15735C35.2625 0.48985 32.615 -0.16765 30.0325 0.34235L19.5425 2.43985C14.3025 3.48735 10.5 8.12735 10.5 13.4724V57.6698H1.75C1.06 57.6698 0.5 58.2299 0.5 58.9198C0.5 59.6099 1.06 60.1698 1.75 60.1698H59.25C59.94 60.1698 60.5 59.6099 60.5 58.9198C60.5 58.2299 59.94 57.6698 59.25 57.6698ZM41.75 7.66985C45.195 7.66985 48 10.4724 48 13.9199V57.6698H40.5V8.92235C40.5 8.49985 40.47 8.08235 40.41 7.66985H41.75ZM13 13.4724C13 9.31485 15.9575 5.70735 20.0325 4.88985L30.5225 2.79235C32.36 2.41735 34.2575 2.89485 35.7125 4.08985C37.165 5.28235 38 7.04235 38 8.92235V57.6698H13V13.4724ZM33 30.1698C33 31.5499 31.88 32.6698 30.5 32.6698C29.12 32.6698 28 31.5499 28 30.1698C28 28.7899 29.12 27.6698 30.5 27.6698C31.88 27.6698 33 28.7899 33 30.1698Z" fill="#2B2D42"/>
</g>
<defs>
<clipPath id="clip0_30_895">
<rect width="60" height="60" fill="white" transform="translate(0.5 0.169922)"/>
</clipPath>
</defs>
</svg>
