<svg width="63" height="63" viewBox="0 0 63 63" fill="none" xmlns="http://www.w3.org/2000/svg">
<path d="M63 31.5C63 48.897 48.897 63 31.5 63C14.103 63 0 48.897 0 31.5C0 14.103 14.103 0 31.5 0C48.897 0 63 14.103 63 31.5Z" fill="#2B47E1"/>
<path d="M18.1453 39.24C18.0386 39.24 17.9426 39.2027 17.8573 39.128C17.7826 39.0533 17.7453 38.9573 17.7453 38.84V34.84C17.7453 34.7333 17.7826 34.6427 17.8573 34.568C17.9426 34.4827 18.0386 34.44 18.1453 34.44H18.4333C18.6999 34.44 18.9186 34.3173 19.0893 34.072C19.2599 33.8267 19.3986 33.4853 19.5053 33.048C19.6119 32.6 19.6866 32.072 19.7292 31.464C19.7719 30.8453 19.7933 30.1733 19.7933 29.448V26.2C19.7933 26.0827 19.8306 25.9867 19.9053 25.912C19.9906 25.8373 20.0866 25.8 20.1933 25.8H27.7132C27.8306 25.8 27.9266 25.8373 28.0013 25.912C28.0759 25.9867 28.1133 26.0827 28.1133 26.2V34.44H28.8652C28.9826 34.44 29.0786 34.4827 29.1533 34.568C29.2386 34.6427 29.2812 34.7333 29.2812 34.84V38.84C29.2812 38.9467 29.2386 39.0373 29.1533 39.112C29.0786 39.1973 28.9826 39.24 28.8652 39.24H26.8013C26.6839 39.24 26.5879 39.1973 26.5133 39.112C26.4386 39.0373 26.4013 38.9467 26.4013 38.84V37H20.6252V38.84C20.6252 38.9467 20.5879 39.0373 20.5133 39.112C20.4386 39.1973 20.3426 39.24 20.2253 39.24H18.1453ZM21.8413 34.44H25.2493V28.36H22.5773V29.816C22.5773 30.9467 22.5133 31.8907 22.3853 32.648C22.2573 33.3947 22.0759 33.992 21.8413 34.44Z" fill="white"/>
<path d="M34.0671 39.24C33.9605 39.24 33.8645 39.2027 33.7791 39.128C33.7045 39.0533 33.6671 38.9573 33.6671 38.84V34.84C33.6671 34.7333 33.7045 34.6427 33.7791 34.568C33.8645 34.4827 33.9605 34.44 34.0671 34.44H34.3551C34.6218 34.44 34.8405 34.3173 35.0111 34.072C35.1818 33.8267 35.3205 33.4853 35.4271 33.048C35.5338 32.6 35.6085 32.072 35.6511 31.464C35.6938 30.8453 35.7151 30.1733 35.7151 29.448V26.2C35.7151 26.0827 35.7525 25.9867 35.8271 25.912C35.9125 25.8373 36.0085 25.8 36.1151 25.8H43.6351C43.7525 25.8 43.8485 25.8373 43.9231 25.912C43.9978 25.9867 44.0351 26.0827 44.0351 26.2V34.44H44.7871C44.9045 34.44 45.0005 34.4827 45.0751 34.568C45.1605 34.6427 45.2031 34.7333 45.2031 34.84V38.84C45.2031 38.9467 45.1605 39.0373 45.0751 39.112C45.0005 39.1973 44.9045 39.24 44.7871 39.24H42.7231C42.6058 39.24 42.5098 39.1973 42.4351 39.112C42.3605 39.0373 42.3231 38.9467 42.3231 38.84V37H36.5471V38.84C36.5471 38.9467 36.5098 39.0373 36.4351 39.112C36.3605 39.1973 36.2645 39.24 36.1471 39.24H34.0671ZM37.7631 34.44H41.1711V28.36H38.4991V29.816C38.4991 30.9467 38.4351 31.8907 38.3071 32.648C38.1791 33.3947 37.9978 33.992 37.7631 34.44Z" fill="white"/>
</svg>
