<svg width="61" height="61" viewBox="0 0 61 61" fill="none" xmlns="http://www.w3.org/2000/svg">
<g clip-path="url(#clip0_30_893)">
<path d="M33 8.91992V3.91992C33 1.85242 31.3175 0.169922 29.25 0.169922C27.62 0.169922 26.23 1.21492 25.715 2.66992H22.785C22.27 1.21492 20.88 0.169922 19.25 0.169922H11.125C5.265 0.169922 0.5 4.93492 0.5 10.7949C0.5 11.8274 1.3425 12.6699 2.375 12.6699H12.945L11.7525 41.1974C11.695 42.9099 12.315 44.5274 13.5025 45.7599C14.6925 46.9899 16.2875 47.6699 18 47.6699C19.7125 47.6699 21.3075 46.9924 22.4975 45.7599C23.6875 44.5274 24.3075 42.9074 24.2475 41.1899L23 11.3674V10.1699H25.715C26.23 11.6249 27.62 12.6699 29.25 12.6699C31.3175 12.6699 33 10.9874 33 8.91992ZM20.6975 44.0249C19.2725 45.4999 16.7275 45.4999 15.3025 44.0249C14.59 43.2849 14.215 42.3124 14.2525 41.2924L15.45 12.6699H20.5525L21.75 41.2849C21.7875 42.3124 21.41 43.2849 20.6975 44.0249ZM28 8.91992C28 8.22992 27.44 7.66992 26.75 7.66992H21.75C21.06 7.66992 20.5 8.22992 20.5 8.91992V10.1699H3.025C3.345 5.97992 6.855 2.66992 11.125 2.66992H19.25C19.9375 2.66992 20.5 3.23242 20.5 3.91992C20.5 4.60742 21.06 5.16992 21.75 5.16992H26.75C27.44 5.16992 28 4.60992 28 3.91992C28 3.22992 28.5625 2.66992 29.25 2.66992C29.9375 2.66992 30.5 3.23242 30.5 3.91992V8.91992C30.5 9.60742 29.9375 10.1699 29.25 10.1699C28.5625 10.1699 28 9.60742 28 8.91992ZM55.4 35.2774L50.5425 33.0474C49.0125 32.3449 48.135 30.6899 48.4075 29.0224C49.425 22.7974 50.5 15.0324 50.5 13.9199C50.5 10.4724 47.6975 7.66992 44.25 7.66992C40.8025 7.66992 38 10.4724 38 13.9199C38 15.0324 39.075 22.7974 40.0925 29.0224C40.365 30.6899 39.49 32.3449 37.96 33.0474L33.0975 35.2774C30.0025 36.6974 28 39.8199 28 43.2299V53.9199C28 57.3674 30.8025 60.1699 34.25 60.1699H35.5625C36.135 60.1699 36.6325 59.7849 36.7725 59.2324L38.7825 51.4374L40.8525 59.2399C41 59.7899 41.495 60.1699 42.06 60.1699H54.2475C57.695 60.1699 60.4975 57.3674 60.4975 53.9199V43.2299C60.4975 39.8224 58.4975 36.6999 55.4 35.2774ZM34.14 37.5474L39.0025 35.3174C41.5525 34.1449 43.0125 31.3899 42.5575 28.6149C41.39 21.4574 40.5 14.6124 40.5 13.9174C40.5 11.8499 42.1825 10.1674 44.25 10.1674C46.3175 10.1674 48 11.8499 48 13.9174C48 14.6124 47.11 21.4574 45.9425 28.6149C45.485 31.3874 46.9475 34.1449 49.4975 35.3174L54.355 37.5474C55.57 38.1049 56.5125 39.0474 57.15 40.1699H31.345C31.98 39.0474 32.925 38.1049 34.1375 37.5474H34.14ZM58 53.9199C58 55.9874 56.3175 57.6699 54.25 57.6699H43.025L40.7575 49.1299C40.505 48.2324 39.71 47.6274 38.7775 47.6274C37.845 47.6274 37.05 48.2299 36.79 49.1524L34.595 57.6674H34.25C32.1825 57.6674 30.5 55.9849 30.5 53.9174V43.2274C30.5 43.0349 30.565 42.8574 30.5825 42.6674H57.92C57.9375 42.8574 58.0025 43.0349 58.0025 43.2274V53.9174L58 53.9199Z" fill="#2B2D42"/>
</g>
<defs>
<clipPath id="clip0_30_893">
<rect width="60" height="60" fill="white" transform="translate(0.5 0.169922)"/>
</clipPath>
</defs>
</svg>
