<svg width="36" height="61" viewBox="0 0 36 61" fill="none" xmlns="http://www.w3.org/2000/svg">
<g clip-path="url(#clip0_30_899)">
<path d="M28.9845 31.2849C33.092 27.9724 35.517 22.9449 35.517 17.6699C35.7145 8.26493 27.4195 -0.0275663 18.0195 0.169934C8.46203 -0.0575663 -0.177968 9.07743 0.542032 18.6049C0.804532 23.5849 3.16703 28.1599 7.05203 31.2849L1.93953 51.0849C0.837031 55.5949 4.62953 60.2899 9.26953 60.1699H26.7695C31.437 60.2774 35.2045 55.5974 34.0895 51.0349L28.987 31.2849H28.9845ZM30.6595 55.8099C29.7045 56.9924 28.287 57.6699 26.767 57.6699H9.26703C6.19953 57.7649 3.65203 54.6149 4.36953 51.6599L9.67703 31.1074C9.80453 30.6099 9.61703 30.0874 9.20453 29.7849C5.52453 27.1049 3.27953 22.9799 3.03703 18.4724C2.42453 10.3324 9.84953 2.47243 18.017 2.66993C26.077 2.50243 33.187 9.60743 33.017 17.6699C33.017 22.4324 30.7045 26.9624 26.8295 29.7849C26.417 30.0874 26.2295 30.6124 26.357 31.1074L31.6545 51.6099C31.9745 53.0949 31.612 54.6274 30.6595 55.8074V55.8099Z" fill="#2B2D42"/>
</g>
<defs>
<clipPath id="clip0_30_899">
<rect width="35" height="60" fill="white" transform="translate(0.5 0.169922)"/>
</clipPath>
</defs>
</svg>
