<svg width="51" height="61" viewBox="0 0 51 61" fill="none" xmlns="http://www.w3.org/2000/svg">
<g clip-path="url(#clip0_30_901)">
<path d="M44.25 0.169922H6.75C3.3025 0.169922 0.5 2.97242 0.5 6.41992V60.1699H50.5V6.41992C50.5 2.97242 47.6975 0.169922 44.25 0.169922ZM48 57.6699H3V6.41992C3 4.35242 4.6825 2.66992 6.75 2.66992H44.25C46.3175 2.66992 48 4.35242 48 6.41992V57.6699ZM13 50.1699H38V10.1699H13V50.1699ZM15.5 47.6699V31.4199H35.5V47.6699H15.5ZM35.5 12.6699V28.9199H15.5V12.6699H35.5Z" fill="#2B2D42"/>
</g>
<defs>
<clipPath id="clip0_30_901">
<rect width="50" height="60" fill="white" transform="translate(0.5 0.169922)"/>
</clipPath>
</defs>
</svg>
