<svg width="61" height="61" viewBox="0 0 61 61" fill="none" xmlns="http://www.w3.org/2000/svg">
<g clip-path="url(#clip0_30_897)">
<path d="M26.75 57.6699H11.75C6.925 57.6699 3 53.7449 3 48.9199V31.4199C3 26.5949 6.925 22.6699 11.75 22.6699H36.75C38.2875 22.6699 39.8 23.0749 41.125 23.8399C41.7225 24.1874 42.4875 23.9799 42.8325 23.3849C43.18 22.7874 42.975 22.0224 42.3775 21.6774C41.78 21.3324 41.1475 21.0674 40.5025 20.8374V16.4199C40.5025 7.45992 33.2125 0.169922 24.2525 0.169922C15.2925 0.169922 8 7.45992 8 16.4199V20.8599C3.645 22.4124 0.5 26.5374 0.5 31.4199V48.9199C0.5 55.1224 5.5475 60.1699 11.75 60.1699H26.75C27.44 60.1699 28 59.6099 28 58.9199C28 58.2299 27.44 57.6699 26.75 57.6699ZM10.5 16.4199C10.5 8.83742 16.6675 2.66992 24.25 2.66992C31.8325 2.66992 38 8.83742 38 16.4199V20.2524C37.585 20.2074 37.17 20.1699 36.75 20.1699H11.75C11.3225 20.1699 10.915 20.2499 10.5 20.2974V16.4199ZM24.25 37.6699C24.94 37.6699 25.5 38.2299 25.5 38.9199V43.9199C25.5 44.6099 24.94 45.1699 24.25 45.1699C23.56 45.1699 23 44.6099 23 43.9199V38.9199C23 38.2299 23.56 37.6699 24.25 37.6699ZM44.25 27.6699C35.29 27.6699 28 34.9599 28 43.9199C28 52.8799 35.29 60.1699 44.25 60.1699C53.21 60.1699 60.5 52.8799 60.5 43.9199C60.5 34.9599 53.21 27.6699 44.25 27.6699ZM44.25 57.6699C36.6675 57.6699 30.5 51.4999 30.5 43.9199C30.5 36.3399 36.6675 30.1699 44.25 30.1699C51.8325 30.1699 58 36.3399 58 43.9199C58 51.4999 51.8325 57.6699 44.25 57.6699ZM52.625 40.5274C53.105 41.0224 53.0925 41.8149 52.595 42.2949L45.8375 48.8299C44.9375 49.7174 43.75 50.1624 42.56 50.1624C41.37 50.1624 40.1875 49.7199 39.28 48.8349L35.87 45.4674C35.3775 44.9849 35.3725 44.1924 35.8575 43.6999C36.3425 43.2124 37.135 43.2049 37.625 43.6899L41.0325 47.0524C41.875 47.8774 43.2475 47.8674 44.09 47.0424L50.855 40.4974C51.355 40.0199 52.1475 40.0299 52.625 40.5274Z" fill="#2B2D42"/>
</g>
<defs>
<clipPath id="clip0_30_897">
<rect width="60" height="60" fill="white" transform="translate(0.5 0.169922)"/>
</clipPath>
</defs>
</svg>
