<svg width="40" height="40" viewBox="0 0 40 40" fill="none" xmlns="http://www.w3.org/2000/svg">
<path d="M36.25 33.75H32.5V6.25C32.5 5.58696 32.2366 4.95107 31.7678 4.48223C31.2989 4.01339 30.663 3.75 30 3.75H10C9.33696 3.75 8.70107 4.01339 8.23223 4.48223C7.76339 4.95107 7.5 5.58696 7.5 6.25V33.75H3.75C3.41848 33.75 3.10054 33.8817 2.86612 34.1161C2.6317 34.3505 2.5 34.6685 2.5 35C2.5 35.3315 2.6317 35.6495 2.86612 35.8839C3.10054 36.1183 3.41848 36.25 3.75 36.25H36.25C36.5815 36.25 36.8995 36.1183 37.1339 35.8839C37.3683 35.6495 37.5 35.3315 37.5 35C37.5 34.6685 37.3683 34.3505 37.1339 34.1161C36.8995 33.8817 36.5815 33.75 36.25 33.75ZM10 6.25H30V33.75H10V6.25ZM26.25 20.625C26.25 20.9958 26.14 21.3584 25.934 21.6667C25.728 21.975 25.4351 22.2154 25.0925 22.3573C24.7499 22.4992 24.3729 22.5363 24.0092 22.464C23.6455 22.3916 23.3114 22.213 23.0492 21.9508C22.787 21.6886 22.6084 21.3545 22.536 20.9908C22.4637 20.6271 22.5008 20.2501 22.6427 19.9075C22.7846 19.5649 23.025 19.272 23.3333 19.066C23.6416 18.86 24.0042 18.75 24.375 18.75C24.8723 18.75 25.3492 18.9475 25.7008 19.2992C26.0525 19.6508 26.25 20.1277 26.25 20.625Z" fill="#2B2D42"/>
</svg>
