<svg width="51" height="61" viewBox="0 0 51 61" fill="none" xmlns="http://www.w3.org/2000/svg">
<g clip-path="url(#clip0_30_882)">
<path d="M25.5004 17.67C22.0529 17.67 19.2504 20.4725 19.2504 23.92C19.2504 26.94 21.4004 29.465 24.2504 30.045V38.92C24.2504 39.61 24.8104 40.17 25.5004 40.17C26.1904 40.17 26.7504 39.61 26.7504 38.92V30.045C29.6004 29.465 31.7504 26.94 31.7504 23.92C31.7504 20.4725 28.9479 17.67 25.5004 17.67ZM25.5004 27.67C23.4329 27.67 21.7504 25.9875 21.7504 23.92C21.7504 21.8525 23.4329 20.17 25.5004 20.17C27.5679 20.17 29.2504 21.8525 29.2504 23.92C29.2504 25.9875 27.5679 27.67 25.5004 27.67ZM42.4104 5.71003L25.8929 0.232529C25.6379 0.150029 25.3604 0.150029 25.1079 0.232529L8.59293 5.70753C3.75293 7.31503 0.50293 11.815 0.50293 16.9125V30.0025C0.50293 46.525 18.4004 56.7575 23.8879 59.5025C23.8879 59.5025 24.6854 60.1675 25.5104 60.1675C26.3354 60.1675 27.0779 59.6325 27.0779 59.6325C32.5729 57.4225 50.5029 48.755 50.5029 30.0025V16.9125C50.5029 11.8125 47.2504 7.31003 42.4129 5.70753L42.4104 5.71003ZM48.0004 30.0075C48.0004 47.1925 31.2704 55.255 26.1404 57.3175L25.5629 57.5525L25.0029 57.2725C19.8429 54.6925 3.00043 45.1 3.00043 30.01V16.92C3.00043 12.9025 5.56293 9.35253 9.37793 8.08753L25.5004 2.74003L41.6229 8.08753C45.4354 9.35253 48.0004 12.9025 48.0004 16.92V30.0075Z" fill="#2B2D42"/>
</g>
<defs>
<clipPath id="clip0_30_882">
<rect width="50" height="60" fill="white" transform="translate(0.5 0.169922)"/>
</clipPath>
</defs>
</svg>
