<svg width="40" height="40" viewBox="0 0 40 40" fill="none" xmlns="http://www.w3.org/2000/svg">
<path fill-rule="evenodd" clip-rule="evenodd" d="M8.74967 15.5049V13.3333C8.74967 10.3496 9.93494 7.48808 12.0447 5.3783C14.1545 3.26852 17.016 2.08325 19.9997 2.08325C22.9834 2.08325 25.8448 3.26852 27.9546 5.3783C30.0644 7.48808 31.2497 10.3496 31.2497 13.3333V15.5049C31.6275 15.5305 31.9841 15.566 32.3197 15.6116C33.8197 15.8116 35.083 16.2449 36.0863 17.2466C37.0897 18.2499 37.5197 19.5133 37.723 21.0133C37.9163 22.4583 37.9163 24.2966 37.9163 26.5749V26.7583C37.9163 29.0366 37.9163 30.8749 37.723 32.3199C37.5197 33.8199 37.0897 35.0833 36.0863 36.0866C35.083 37.0899 33.8197 37.5199 32.3197 37.7233C30.8747 37.9166 29.0363 37.9166 26.758 37.9166H13.2413C10.963 37.9166 9.12467 37.9166 7.67967 37.7233C6.17967 37.5199 4.91634 37.0899 3.91301 36.0866C2.90967 35.0833 2.47967 33.8199 2.27801 32.3199C2.08301 30.8749 2.08301 29.0366 2.08301 26.7583V26.5749C2.08301 24.2966 2.08301 22.4583 2.27801 21.0133C2.47801 19.5133 2.91134 18.2499 3.91301 17.2466C4.91634 16.2433 6.17967 15.8133 7.67967 15.6116C8.01412 15.566 8.37079 15.5305 8.74967 15.5049ZM11.2497 13.3333C11.2497 11.0126 12.1715 8.78701 13.8125 7.14607C15.4534 5.50512 17.679 4.58325 19.9997 4.58325C22.3203 4.58325 24.5459 5.50512 26.1869 7.14607C27.8278 8.78701 28.7497 11.0126 28.7497 13.3333V15.4216C28.1275 15.4171 27.4636 15.4155 26.758 15.4166H13.2413C12.5369 15.4166 11.873 15.4183 11.2497 15.4216V13.3333ZM5.68134 19.0149C6.14301 18.5533 6.78967 18.2533 8.01467 18.0883C9.27134 17.9199 10.9413 17.9166 13.333 17.9166H26.6663C29.058 17.9166 30.7263 17.9199 31.9863 18.0883C33.2097 18.2533 33.8563 18.5549 34.318 19.0149C34.7797 19.4766 35.0797 20.1233 35.2447 21.3483C35.413 22.6066 35.4163 24.2749 35.4163 26.6666C35.4163 29.0583 35.413 30.7266 35.2447 31.9866C35.0797 33.2099 34.778 33.8566 34.318 34.3183C33.8563 34.7799 33.2097 35.0799 31.9847 35.2449C30.7263 35.4133 29.058 35.4166 26.6663 35.4166H13.333C10.9413 35.4166 9.27134 35.4133 8.01301 35.2449C6.78967 35.0799 6.14301 34.7783 5.68134 34.3183C5.21967 33.8566 4.91967 33.2099 4.75467 31.9849C4.58634 30.7266 4.58301 29.0583 4.58301 26.6666C4.58301 24.2749 4.58634 22.6049 4.75467 21.3466C4.91967 20.1233 5.22134 19.4766 5.68134 19.0149Z" fill="#2B2D42"/>
</svg>
